# xmcd
#
# Track frame offsets: 
#        150
#        16414
#        30624
#        47165
#        67866
#        84475
#        101860
#        115738
#        133043
#        147937
#        171084
#        193834
#
# Disc length: 2588 seconds
#
# Revision: 4
# Processed by: cddbd v1.5.2PL0 Copyright (c) Steve Scherf et al.
# Submitted via: ExactAudioCopy v1.3
#
DISCID=a30a1a0c
DTITLE=Palmy - Beautiful Ride
DYEAR=2006
DGENRE=Pop
TTITLE0=Tick Tock
TTITLE1=Ooh!
TTITLE2=ความเจ็บปวด
TTITLE3=ร้องไห้ง่ายง่ายกับเรื่องเดิมเดิม
TTITLE4=ไม่มีคำจำกัดความ
TTITLE5=จากกันตรงนี้
TTITLE6=กุญแจที่หายไป
TTITLE7=ปล่อย
TTITLE8=ไม่มีใครโชคร้ายตลอด
TTITLE9=หนึ่งนาที
TTITLE10=DATA
TTITLE11=DATA
EXTD=
EXTT0=
EXTT1=
EXTT2=
EXTT3=
EXTT4=
EXTT5=
EXTT6=
EXTT7=
EXTT8=
EXTT9=
EXTT10=
EXTT11=
PLAYORDER=
